# Blender v2.82 (sub 7) OBJ File: ''
# www.blender.org
mtllib test1.mtl
o Cube
v 0.249789 1.071534 -3.761163
v 0.249789 -0.231186 3.761162
v 0.089822 1.219587 -1.352487
v 0.249789 -0.231186 -3.761162
v 0.249789 1.071534 3.761163
v -0.249789 -0.231186 3.761162
v 0.089822 1.219587 1.352487
v -0.249789 -0.231186 -3.761162
v 0.249789 0.083133 3.761163
v 0.249789 0.083133 -3.761163
v -0.249789 0.083133 3.761163
v -0.249789 0.083133 -3.761163
v -0.089822 1.219587 1.352487
v -0.223162 1.120822 3.360224
v -0.089822 1.219587 -1.352487
v -0.249789 1.071534 -3.761163
v -0.223162 1.120822 -3.360224
v 0.223162 1.120822 -3.360224
v 0.223162 1.120822 3.360224
v -0.249789 1.071534 3.761163
vt 0.544949 0.750000
vt 0.375000 0.750000
vt 0.375000 1.000000
vt 0.544949 0.000000
vt 0.375000 0.000000
vt 0.375000 0.250000
vt 0.794949 0.580051
vt 0.705051 0.580051
vt 0.705051 0.669949
vt 0.375000 0.500000
vt 0.125000 0.500000
vt 0.125000 0.750000
vt 0.544949 0.500000
vt 0.544949 0.750000
vt 0.544949 1.000000
vt 0.544949 1.000000
vt 0.544949 0.250000
vt 0.544949 0.250000
vt 0.544949 0.500000
vt 0.638325 0.730013
vt 0.855013 0.736675
vt 0.584924 0.513325
vt 0.794949 0.669949
vt 0.861675 0.519987
vt 0.638325 0.519987
vt 0.625000 0.750000
vt 0.584924 0.736675
vt 0.875000 0.750000
vt 0.875000 0.500000
vt 0.544949 0.000000
vt 0.625000 0.500000
vn 0.0000 -0.0000 -1.0000
vn -1.0000 0.0000 0.0000
vn 0.0000 1.0000 -0.0000
vn 0.0000 -1.0000 0.0000
vn 1.0000 0.0000 0.0000
vn 0.0000 0.0000 1.0000
vn 0.0000 0.9988 -0.0491
vn 0.5952 0.8036 0.0000
vn -0.5952 0.8036 0.0000
vn 0.0000 0.9988 0.0491
vn 0.0000 0.9925 -0.1220
vn 0.8798 0.4753 0.0000
vn -0.8798 0.4753 0.0000
vn 0.0000 0.9925 0.1220
usemtl Material
s off
f 10/1/1 4/2/1 8/3/1
f 12/4/2 8/5/2 6/6/2
f 13/7/3 7/8/3 3/9/3
f 2/10/4 6/11/4 8/12/4
f 9/13/5 2/10/5 4/2/5
f 9/13/5 10/1/5 1/14/5
f 10/1/1 12/15/1 16/16/1
f 12/4/2 11/17/2 20/18/2
f 11/17/6 9/13/6 5/19/6
f 11/17/6 6/6/6 2/10/6
f 3/9/7 18/20/7 17/21/7
f 3/9/8 7/8/8 19/22/8
f 13/7/9 15/23/9 17/21/9
f 13/7/10 14/24/10 19/25/10
f 17/21/11 18/20/11 1/26/11
f 18/27/12 19/22/12 5/19/12
f 14/24/13 17/21/13 16/28/13
f 19/25/14 14/24/14 20/29/14
f 10/1/1 8/3/1 12/15/1
f 12/4/2 6/6/2 11/17/2
f 13/7/3 3/9/3 15/23/3
f 2/10/4 8/12/4 4/2/4
f 9/13/5 4/2/5 10/1/5
f 9/13/5 1/14/5 5/19/5
f 10/1/1 16/16/1 1/14/1
f 12/4/2 20/18/2 16/30/2
f 11/17/6 5/19/6 20/18/6
f 11/17/6 2/10/6 9/13/6
f 3/9/7 17/21/7 15/23/7
f 3/9/8 19/22/8 18/27/8
f 13/7/9 17/21/9 14/24/9
f 13/7/10 19/25/10 7/8/10
f 17/21/11 1/26/11 16/28/11
f 18/27/12 5/19/12 1/14/12
f 14/24/13 16/28/13 20/29/13
f 19/25/14 20/29/14 5/31/14
